<svg width="2e3pt" height="2e3pt" version="1.0" viewBox="0 0 2e3 2e3" xmlns="http://www.w3.org/2000/svg">
<g transform="translate(0 2e3) scale(.1 -.1)">
<path d="m13000 18750v-250h-750-750v-250-250h-1500-1500v-250-250h-3750-3750v-2e3 -2e3h250 250v-250-250h250 250v-2e3 -2e3h-250-250v-750-750h250 250v-250-250h3250 3250v250 250h750 750v-500-500h-250-250v-250-250h-250-250v-250-250h-1250-1250v250 250h-1e3 -1e3v-500-500h250 250v-250-250h500 500v-250-250h750 750v-500-500h-250-250v-1e3 -1e3h500 500v250 250h250 250v500 500h250 250v250 250h500 500v250 250h750 750v-1250-1250h500 500v250 250h250 250v1e3 1e3h250 250v-250-250h250 250v-250-250h250 250v-500-500h250 250v-250-250h500 500v1250 1250h-250-250v500 500h250 250v-250-250h250 250v-250-250h250 250v-250-250h250 250v-750-750h250 250v-250-250h500 500v1500 1500h-250-250v750 750h-250-250v500 500h-250-250v500 500h-250-250v750 750h-250-250v750 750h-250-250v750 750h-250-250v500 500h-250-250v250 250h-250-250v250 250h-250-250v250 250h-250-250v500 500h250 250v250 250h250 250v250 250h250 250v250 250h250 250v1e3 1e3h-1250-1250v-250zm2e3 -1250v-500h-250-250v-250-250h-250-250v-250-250h-250-250v-250-250h-250-250v500 500h250 250v250 250h250 250v250 250h250 250v250 250h250 250v-500zm-8e3 -4250v-250h250 250v-250-250h-250-250v-750-750h250 250v500 500h250 250v-500-500h-250-250v-250-250h250 250v-500-500h-250-250v-250-250h-1500-1500v250 250h-1e3 -1e3v500 500h500 500v250 250h-500-500v1e3 1e3h1500 1500v250 250h750 750v-250zm5e3 -4500v-250h750 750v-250-250h500 500v-250-250h250 250v-250-250h250 250v-250-250h250 250v-750-750h-1500-1500v250 250h-250-250v250 250h-250-250v250 250h-250-250v250 250h-500-500v250 250h-250-250v250 250h-750-750v250 250h250 250v250 250h1500 1500v-250zm-6500-3500v-250h-250-250v250 250h250 250v-250zm2500-3500v-250h-250-250v250 250h250 250v-250zm4500 0v-250h-250-250v250 250h250 250v-250zm3e3 0v-250h-250-250v250 250h250 250v-250zm3e3 0v-250h-250-250v250 250h250 250v-250z"/>
<path d="m3500 11500v-500h250 250v-500-500h250 250v250 250h250 250v250 250h250 250v-250-250h250 250v-250-250h250 250v250 250h250 250v250 250h-750-750v500 500h-250-250v-500-500h-250-250v250 250h-250-250v250 250h-250-250v-500z"/>
</g>
</svg>
