<svg width="460" height="172" viewBox="0 0 460 172" fill="none" xmlns="http://www.w3.org/2000/svg">
<path d="M103.218 3.368L75.058 79.4L108.594 169H71.986L47.41 103.464H35.89V169H0.0500002L0.0500002 3.368H35.89V72.744H44.594L70.45 3.368H103.218ZM179.936 3.368H215.776V137.768C215.776 160.296 205.195 171.56 184.032 171.56H152.288C131.125 171.56 120.544 160.296 120.544 137.768V3.368L156.384 3.368V140.84C156.384 142.205 156.811 143.4 157.664 144.424C158.688 145.448 159.883 145.96 161.248 145.96H175.072C176.437 145.96 177.547 145.448 178.4 144.424C179.424 143.4 179.936 142.205 179.936 140.84V3.368ZM321.196 78.376C332.289 82.3013 337.836 91.3467 337.836 105.512V135.208C337.836 157.736 327.255 169 306.092 169H240.3L240.3 3.368H304.044C325.207 3.368 335.788 14.632 335.788 37.16V52.264C335.788 65.9173 330.924 74.6213 321.196 78.376ZM295.084 27.688L276.14 27.688V71.976L295.084 71.976C296.449 71.976 297.559 71.464 298.412 70.44C299.436 69.416 299.948 68.2213 299.948 66.856V32.808C299.948 31.4427 299.436 30.248 298.412 29.224C297.559 28.2 296.449 27.688 295.084 27.688ZM301.996 139.304V102.184C301.996 100.819 301.484 99.624 300.46 98.6C299.607 97.576 298.497 97.064 297.132 97.064H276.14V144.424H297.132C298.497 144.424 299.607 143.912 300.46 142.888C301.484 141.864 301.996 140.669 301.996 139.304ZM428.092 0.807999C449.255 0.807999 459.836 12.072 459.836 34.6V169H423.996V113.448H398.14V169H362.3V34.6C362.3 12.072 372.881 0.807999 394.044 0.807999H428.092ZM398.14 85.8H423.996V30.248C423.996 28.8827 423.484 27.688 422.46 26.664C421.607 25.64 420.497 25.128 419.132 25.128H403.004C401.639 25.128 400.444 25.64 399.42 26.664C398.567 27.688 398.14 28.8827 398.14 30.248V85.8Z" fill="#FAFAFA"/>
</svg>
