<svg width="455" height="166" viewBox="0 0 455 166" fill="none" xmlns="http://www.w3.org/2000/svg">
  <g>
    <path fill="#6D5CAE" d="M103.093 0.367996L74.933 76.4L108.469 166H71.861L47.285 100.464H35.765V166H-0.0750122V0.367996H35.765V69.744H44.469L70.325 0.367996H103.093Z" />
    <path fill="#6D5CAE" d="M178.996 0.455994H214.276V132.756C214.276 154.932 203.86 166.02 183.028 166.02H151.78C130.948 166.02 120.532 154.932 120.532 132.756V0.455994H155.812V135.78C155.812 137.124 156.232 138.3 157.072 139.308C158.08 140.316 159.256 140.82 160.6 140.82H174.208C175.552 140.82 176.644 140.316 177.484 139.308C178.492 138.3 178.996 137.124 178.996 135.78V0.455994Z" />
    <path fill="#6D5CAE" d="M320.696 75.376C331.789 79.3013 337.336 88.3467 337.336 102.512V132.208C337.336 154.736 326.755 166 305.592 166H239.8V0.367996H303.544C324.707 0.367996 335.288 11.632 335.288 34.16V49.264C335.288 62.9173 330.424 71.6213 320.696 75.376ZM294.584 24.688H275.64V68.976H294.584C295.949 68.976 297.059 68.464 297.912 67.44C298.936 66.416 299.448 65.2213 299.448 63.856V29.808C299.448 28.4427 298.936 27.248 297.912 26.224C297.059 25.2 295.949 24.688 294.584 24.688ZM301.496 136.304V99.184C301.496 97.8187 300.984 96.624 299.96 95.6C299.107 94.576 297.997 94.064 296.632 94.064H275.64V141.424H296.632C297.997 141.424 299.107 140.912 299.96 139.888C300.984 138.864 301.496 137.669 301.496 136.304Z" />
    <path fill="#6D5CAE" d="M396.457 166.191H361.037V33.366C361.037 11.102 371.494 -0.0299988 392.409 -0.0299988H423.781C444.695 -0.0299988 455.153 11.102 455.153 33.366V166.191H419.733V30.33C419.733 28.9807 419.311 27.8 418.468 26.788C417.456 25.776 416.275 25.27 414.926 25.27H401.264C399.914 25.27 398.818 25.776 397.975 26.788C396.963 27.8 396.457 28.9807 396.457 30.33V166.191Z" />
  </g>
</svg>
