<svg xmlns="http://www.w3.org/2000/svg" fill="none" viewBox="0 0 16 16"><defs/><path fill="#212B36" fill-rule="evenodd" d="M13.477 14.4H2.523a.8.8 0 01-.792-.913l.914-6.4a.8.8 0 01.792-.687H4V8a.8.8 0 001.6 0V6.4h4.8V8A.8.8 0 0012 8V6.4h.563a.8.8 0 01.792.687l.914 6.4a.8.8 0 01-.792.913zM5.6 4c0-1.323 1.076-2.4 2.4-2.4 1.324 0 2.4.8 2.4 2.4v.8H5.6V4zm10.384 10.174l-1.144-8A1.6 1.6 0 0013.256 4.8H12V4c0-2.4-1.795-4-4-4S4 1.794 4 4v.8H2.988c-.796 0-1.716.586-1.83 1.374l-1.142 8A1.6 1.6 0 001.6 16h12.8a1.6 1.6 0 001.584-1.826z" clip-rule="evenodd"/></svg>