<svg xmlns="http://www.w3.org/2000/svg" fill="none" viewBox="0 0 30 32"><defs/><path fill="#212B36" fill-rule="evenodd" d="M12.286 17.25a2.285 2.285 0 11-4.57.002 2.285 2.285 0 014.57-.002zM10 28.428s-5.714-8-5.714-11.428A5.72 5.72 0 0110 11.286 5.72 5.72 0 0115.714 17c0 3.428-5.714 11.428-5.714 11.428zM10 9a8 8 0 00-8 8c0 4.418 8 14.857 8 14.857S18 21.418 18 17a8 8 0 00-8-8z" clip-rule="evenodd"/><circle cx="17.333" cy="12" r="12" fill="#FF5630" opacity=".1"/><circle cx="17.333" cy="12" r="9" fill="#FF5630" opacity=".1"/><circle cx="17.334" cy="12" r="4" fill="#FF5630"/></svg>