<svg xmlns="http://www.w3.org/2000/svg" fill="none" viewBox="0 0 20 20"><defs/><path fill="#212B36" fill-rule="evenodd" d="M10 10c-2.216 0-4.019-1.794-4.019-4s1.803-4 4.02-4c2.216 0 4.018 1.794 4.018 4S12.217 10 10 10zm3.776.673a5.978 5.978 0 002.182-5.603C15.561 2.447 13.37.348 10.722.042 7.07-.381 3.972 2.449 3.972 6c0 1.89.88 3.574 2.252 4.673C2.852 11.934.39 14.895.004 18.891A1.012 1.012 0 001.009 20a.99.99 0 00.993-.891C2.404 14.646 5.837 12 10 12s7.596 2.646 7.999 7.109a.99.99 0 00.993.891c.596 0 1.06-.518 1.003-1.109-.385-3.996-2.847-6.957-6.22-8.218z" clip-rule="evenodd"/></svg>